<svg version="1.1" id="Layer_1" xmlns="http://www.w3.org/2000/svg" xmlns:xlink="http://www.w3.org/1999/xlink" x="0px" y="0px"
	 width="100%" viewBox="0 0 1536 1024" enable-background="new 0 0 1536 1024" xml:space="preserve">
<path fill="#FDFDFD" opacity="1.000000" stroke="none" 
	d="
M838.000000,1025.000000 
	C558.666687,1025.000000 279.833344,1025.000000 1.000000,1025.000000 
	C1.000000,683.666687 1.000000,342.333344 1.000000,1.000000 
	C513.000000,1.000000 1025.000000,1.000000 1537.000000,1.000000 
	C1537.000000,342.333344 1537.000000,683.666687 1537.000000,1025.000000 
	C1304.166626,1025.000000 1071.333374,1025.000000 838.000000,1025.000000 
M841.990479,531.994324 
	C841.990479,531.994324 841.939941,532.024658 842.152222,532.413757 
	C842.352722,532.672424 842.615173,532.780640 843.258423,533.045776 
	C843.258423,533.045776 843.699890,533.079773 844.088501,533.610779 
	C844.692505,533.842224 845.296509,534.073669 845.873352,534.143005 
	C845.873352,534.143005 845.729675,534.222961 846.061096,534.798523 
	C851.682556,538.552734 857.304016,542.306946 863.259033,546.639771 
	C868.156799,551.454956 873.054626,556.270203 878.111572,561.755920 
	C883.359558,568.668640 886.207581,576.193054 883.639526,585.563782 
	C881.750305,589.035645 879.861023,592.507507 877.365784,596.259094 
	C869.900452,601.835449 862.435120,607.411804 854.255676,613.075012 
	C838.517578,619.419922 822.779541,625.764832 806.276855,632.101379 
	C792.185120,635.757446 778.093384,639.413513 763.157043,642.993530 
	C725.030701,649.692383 686.599487,652.951843 647.915039,651.876160 
	C630.148621,651.382202 612.416809,649.401550 594.694275,647.815796 
	C591.738220,647.551331 590.211853,648.506592 588.451782,650.544006 
	C573.661438,667.665222 558.747620,684.679810 543.912781,701.762817 
	C535.418274,711.544678 527.001587,721.394043 517.960632,731.553284 
	C515.875305,734.067200 513.789917,736.581177 511.206146,739.438049 
	C510.313049,740.490295 509.419922,741.542480 508.164307,743.021790 
	C540.050781,748.090149 571.452148,750.773071 603.410339,751.077820 
	C603.916199,751.017212 604.421997,750.956543 605.861572,751.061707 
	C669.857056,752.196350 733.413391,748.229736 795.977356,733.841980 
	C813.456665,729.822266 830.675537,724.670349 848.582336,720.108154 
	C849.096497,719.888489 849.610657,719.668884 850.899597,719.379822 
	C853.597046,718.460449 856.294556,717.541077 859.724426,716.567932 
	C864.653015,714.760986 869.703064,713.227112 874.488220,711.097656 
	C891.457336,703.546570 908.336060,695.792175 925.944885,688.037170 
	C942.086487,680.127136 956.180298,669.163879 969.893127,657.787292 
	C975.781555,652.902100 980.507935,646.616272 986.307739,640.558655 
	C991.861755,633.152588 996.542419,625.464355 999.635803,616.486267 
	C1003.151733,606.281738 1004.533508,596.414490 1001.942993,585.227295 
	C998.932678,573.698975 992.707397,564.166443 983.624573,555.610291 
	C978.473816,551.622070 973.323120,547.633789 967.803040,543.098999 
	C949.698914,531.441956 929.798950,524.078308 908.994202,519.176758 
	C872.633301,510.610016 835.703369,508.610199 798.495667,510.509430 
	C797.800171,510.544891 797.120361,510.886841 795.597717,511.327637 
	C809.618164,517.434387 822.822998,523.185913 836.365479,529.244019 
	C836.365479,529.244019 836.817505,529.304443 836.889648,529.212769 
	C836.889648,529.212769 836.775391,529.189514 837.156067,529.747253 
	C838.392944,530.276794 839.629761,530.806396 840.893494,531.153137 
	C840.893494,531.153137 840.711060,531.182129 840.931946,531.700134 
	C841.281372,531.817566 841.630798,531.934937 841.990479,531.994324 
M700.309937,503.928223 
	C700.358337,503.764648 700.406677,503.601074 700.067444,502.924988 
	C691.587952,495.282684 691.590027,489.061890 700.673340,482.281433 
	C705.072754,478.997437 710.176270,476.656738 715.693848,473.839050 
	C743.481384,462.302917 772.745850,456.526062 802.299683,452.174133 
	C820.120300,449.550018 838.092285,447.954803 856.666565,446.049866 
	C857.112549,445.964844 857.558594,445.879791 858.878662,445.925964 
	C866.590881,445.297485 874.303040,444.669037 882.936707,444.216064 
	C908.834961,443.579926 934.733276,442.945312 960.631409,442.305817 
	C964.072998,442.220856 967.513977,442.111084 971.618896,441.854187 
	C995.804565,413.159363 1019.990234,384.464508 1044.845581,354.975220 
	C990.900391,350.546326 938.422668,351.424988 885.148743,356.882812 
	C879.288635,357.421448 873.401306,357.760101 867.575439,358.550751 
	C860.741516,359.478180 853.972107,360.870361 847.153809,361.926178 
	C841.580811,362.789154 835.937378,363.237762 830.395874,364.255066 
	C820.898071,365.998535 811.455444,368.042572 801.172668,369.914673 
	C799.546814,370.266022 797.916077,370.596344 796.295837,370.971771 
	C749.749878,381.757904 704.479309,396.244598 662.333008,419.107544 
	C648.061707,426.849243 634.721008,436.306549 620.317200,445.199707 
	C613.176697,451.388916 605.768860,457.299500 598.959473,463.833740 
	C589.209229,473.190125 581.110046,483.908081 574.344299,496.400696 
	C571.877991,503.596069 569.411621,510.791473 566.584290,518.659729 
	C566.372192,520.432434 566.160095,522.205139 565.457581,524.663635 
	C563.633667,537.935120 566.606140,550.104614 574.209534,561.857300 
	C575.271118,563.245483 576.332703,564.633667 577.582703,566.499146 
	C578.068054,566.964294 578.553406,567.429443 579.029663,567.972107 
	C579.029663,567.972107 579.107422,567.978943 579.350220,568.595276 
	C587.256165,576.697998 596.151489,583.317566 607.472534,587.522217 
	C611.332520,589.060486 615.131409,590.779358 619.062317,592.107849 
	C646.332214,601.324219 674.649719,604.700745 703.151794,604.644592 
	C730.412903,604.590881 757.702576,602.755127 784.916565,600.817078 
	C802.847839,599.540100 820.608459,596.337036 837.531067,589.831421 
	C841.525330,588.296082 845.485779,586.303284 848.933228,583.794556 
	C855.379700,579.103516 856.057373,570.997314 850.788025,564.971069 
	C848.951538,562.870728 846.597351,561.223083 844.453613,559.405334 
	C844.453613,559.405334 844.437500,559.370789 844.051025,558.946655 
	C843.372925,558.616760 842.694763,558.286804 841.639404,557.393799 
	C839.501099,556.165405 837.457520,554.717346 835.207825,553.747131 
	C826.225159,549.873108 817.178284,546.147644 807.621216,541.968750 
	C801.435486,539.935120 795.249817,537.901550 788.609497,535.310852 
	C776.296631,531.394897 763.866699,527.807922 751.699524,523.482178 
	C735.343018,517.667053 719.189331,511.281799 702.547424,504.681763 
	C701.862366,504.271210 701.177246,503.860626 700.309937,503.928223 
M990.067871,223.224213 
	C990.762329,218.569489 991.456726,213.914764 992.223450,208.775787 
	C968.975281,208.775787 946.587219,208.775787 923.901062,208.775787 
	C923.106140,218.287262 922.330750,227.564270 921.261841,237.600891 
	C920.845093,243.401581 920.428345,249.202286 919.747192,255.771194 
	C918.813293,265.842804 917.879395,275.914429 916.632019,286.728180 
	C916.068542,293.144165 915.505005,299.560120 914.633179,306.703705 
	C913.598206,316.027191 912.563293,325.350677 911.541199,334.558228 
	C935.341248,333.355164 958.338440,332.192688 981.460999,331.023895 
	C982.555054,318.491180 983.622803,306.259735 984.927185,293.170166 
	C985.268188,288.453186 985.609131,283.736206 986.228516,278.245148 
	C987.063904,268.170593 987.899292,258.096069 988.970642,247.192932 
	C988.951843,242.797577 988.933044,238.402237 989.097900,233.441727 
	C989.095764,233.046570 989.093628,232.651398 989.742432,231.923706 
	C989.795410,229.291000 989.848389,226.658295 990.067871,223.224213 
M888.929871,299.169556 
	C889.303711,293.122864 889.677551,287.076141 890.430176,280.308014 
	C891.232056,269.452301 892.033875,258.596619 892.856873,247.455261 
	C869.529236,247.455261 846.864868,247.455261 823.721436,247.455261 
	C822.777344,261.497711 821.853943,275.232880 820.620728,289.714386 
	C820.067322,297.469177 819.513977,305.223969 818.670349,313.728088 
	C817.661011,324.777893 816.651672,335.827728 815.630798,347.003784 
	C839.334229,343.766815 862.344055,340.624603 885.877197,337.410919 
	C886.797913,325.186890 887.745300,312.609497 888.929871,299.169556 
M726.500610,318.634705 
	C725.349487,335.914825 724.198364,353.194916 723.022278,370.849701 
	C733.470520,367.464600 743.115112,363.998749 752.958191,361.241180 
	C764.128662,358.111694 775.503601,355.716858 786.718079,352.733704 
	C788.353394,352.298706 790.727844,350.466583 790.841003,349.119690 
	C792.256714,332.266174 793.318176,315.382935 794.678101,297.877258 
	C795.222900,293.033783 795.767700,288.190338 796.326721,283.219971 
	C773.269592,283.219971 751.255554,283.219971 728.923584,283.219971 
	C728.222412,295.053131 727.545715,306.474609 726.500610,318.634705 
M656.500000,331.002472 
	C649.080811,331.002472 641.661560,331.002472 633.857239,331.002472 
	C632.475464,358.722198 631.134338,385.626221 629.787415,412.645660 
	C631.067322,412.565918 631.432434,412.642151 631.696777,412.512665 
	C652.574219,402.282623 673.468872,392.086426 694.255249,381.674072 
	C695.578979,381.010956 696.645203,378.725189 696.828125,377.082550 
	C697.672546,369.498169 698.250366,361.880066 698.753296,354.262787 
	C699.252075,346.707001 699.547241,339.137817 699.960938,331.000671 
	C685.372620,331.000671 671.436279,331.000671 656.500000,331.002472 
z"/>
<path fill="#E43203" opacity="1.000000" stroke="none" 
	d="
M603.072815,750.874512 
	C571.452148,750.773071 540.050781,748.090149 508.164307,743.021790 
	C509.419922,741.542480 510.313049,740.490295 511.559021,739.624268 
	C513.074768,739.997253 514.289612,740.501953 515.392517,740.321716 
	C526.124084,738.567749 536.859680,736.820679 547.548157,734.825500 
	C556.433838,733.166931 565.257935,731.178284 574.534546,729.270203 
	C584.644409,727.154968 594.329102,725.105469 604.423584,723.055298 
	C621.689392,718.428772 638.574219,713.904846 655.392395,709.145325 
	C669.238037,705.226990 683.053711,701.186951 696.792053,696.909729 
	C709.921631,692.822144 722.934204,688.358826 735.992126,684.438171 
	C735.644958,685.728210 734.941223,686.677429 735.028870,687.546692 
	C735.327026,690.501709 735.155945,693.934265 736.666138,696.169861 
	C737.524170,697.440063 741.330261,697.014099 743.767029,696.822266 
	C745.476746,696.687622 747.123230,695.104065 748.785706,695.125244 
	C755.986084,695.217041 763.183716,695.893250 770.378540,695.840698 
	C772.651672,695.824036 774.925720,694.231995 777.175842,693.303955 
	C778.936523,692.577698 780.612610,691.250793 782.410156,691.081543 
	C788.506409,690.507629 794.655884,690.505188 800.754700,689.950500 
	C806.914246,689.390320 813.472778,688.493408 816.941650,682.763733 
	C823.217712,672.397400 837.792969,667.518616 849.812927,674.841064 
	C852.514343,676.486694 857.191711,675.664124 860.741699,674.927795 
	C864.453735,674.157898 864.019592,670.514343 864.015930,667.475525 
	C864.002686,656.389709 866.930725,653.553406 877.963806,654.138245 
	C879.109802,654.198975 880.435425,655.085999 881.276428,655.970947 
	C885.346558,660.254089 886.243164,660.209717 889.421448,655.416199 
	C890.985901,653.056641 893.592407,651.546387 895.490662,654.051880 
	C897.042542,656.100159 899.967896,658.511841 897.705078,662.140259 
	C895.936951,663.523804 894.461304,664.762268 892.675598,666.137817 
	C891.381958,666.884888 890.311707,667.390259 889.428894,668.121887 
	C884.187927,672.464966 878.842834,676.248047 871.857727,677.796448 
	C867.540283,678.753479 862.912537,680.995728 859.784851,684.053162 
	C853.999756,689.708374 847.726685,693.433533 839.782715,695.197937 
	C834.696533,696.327576 830.086792,699.302856 826.792480,704.127930 
	C829.132568,704.900330 830.782349,705.695068 832.514465,705.969482 
	C837.729004,706.795593 843.135315,708.564453 848.173645,707.862122 
	C856.437073,706.710205 860.163513,707.306824 858.992004,716.621704 
	C856.294556,717.541077 853.597046,718.460449 850.459167,719.068726 
	C849.628418,718.345520 849.238037,717.933289 848.847717,717.521118 
	C848.569763,718.360046 848.291870,719.198914 848.013916,720.037842 
	C830.675537,724.670349 813.456665,729.822266 795.977356,733.841980 
	C733.413391,748.229736 669.857056,752.196350 605.260498,750.775208 
	C604.130554,750.617310 603.601685,750.745911 603.072815,750.874512 
M854.799255,714.394775 
	C854.795044,714.786865 854.790833,715.178894 854.786560,715.570923 
	C854.949280,715.572510 855.253418,715.584961 855.254272,715.574036 
	C855.284363,715.183899 855.286072,714.791504 854.799255,714.394775 
z"/>
<path fill="#1A5BCD" opacity="1.000000" stroke="none" 
	d="
M886.005066,357.127441 
	C938.422668,351.424988 990.900391,350.546326 1044.845581,354.975220 
	C1019.990234,384.464508 995.804565,413.159363 971.056030,441.657898 
	C968.786926,440.887817 967.098022,440.254456 965.371521,439.749603 
	C949.579041,435.131927 933.780029,430.536530 917.995728,425.554382 
	C918.688049,421.809784 921.535583,418.526245 918.269104,414.985870 
	C917.947205,414.637085 918.436096,413.424683 918.702332,412.667114 
	C920.778381,406.758514 921.529846,401.059357 916.219666,396.424011 
	C918.879333,390.777039 918.445129,387.904724 914.889771,388.190857 
	C908.282349,388.722626 905.519287,383.132172 901.202148,380.311035 
	C895.826782,376.798340 891.651184,371.504303 886.575989,367.458008 
	C883.302246,364.847900 881.120667,362.875366 885.428223,359.445648 
	C885.922485,359.052124 885.827087,357.918121 886.005066,357.127441 
z"/>
<path fill="#1B6AD8" opacity="1.000000" stroke="none" 
	d="
M620.955078,444.979858 
	C634.721008,436.306549 648.061707,426.849243 662.333008,419.107544 
	C704.479309,396.244598 749.749878,381.757904 796.295837,370.971771 
	C797.916077,370.596344 799.546814,370.266022 801.773010,370.223114 
	C802.607483,371.818207 802.709167,373.147217 803.104553,374.382263 
	C803.818359,376.612579 804.089111,379.587982 805.663513,380.803467 
	C808.269653,382.815643 811.758057,383.690247 814.883667,385.023163 
	C818.180115,386.428955 821.466492,387.862000 824.797546,389.181519 
	C826.602417,389.896484 828.488892,390.407074 830.342468,390.997498 
	C839.102234,393.787781 847.897644,396.474304 856.588806,399.463745 
	C857.963623,399.936676 859.059998,401.645508 859.950867,403.002441 
	C861.396118,405.203613 862.665771,405.157990 864.866760,403.832306 
	C866.150635,403.058960 868.813538,402.940857 869.824280,403.776215 
	C870.995728,404.744324 871.430115,407.070190 871.481750,408.827301 
	C871.580261,412.177399 871.179993,415.542114 870.560181,418.921265 
	C860.210632,418.312744 850.257202,416.867523 840.371216,417.234863 
	C823.004517,417.880157 805.572632,418.840515 788.366028,421.146210 
	C770.849609,423.493439 753.458984,427.138214 736.233093,431.157135 
	C726.265381,433.482697 716.731567,437.667908 706.835205,440.693573 
	C702.652527,439.457886 698.621826,437.736176 694.624878,437.811371 
	C687.732300,437.941162 680.860107,439.182007 673.980774,439.969421 
	C670.496094,440.368317 667.010803,440.766205 663.533630,441.224091 
	C662.237183,441.394836 660.960754,441.724426 659.679199,442.000122 
	C654.554993,443.102478 649.412048,444.126678 644.313843,445.338837 
	C636.481506,447.201050 628.668213,450.018494 620.955078,444.979858 
z"/>
<path fill="#E53603" opacity="1.000000" stroke="none" 
	d="
M897.997559,661.995117 
	C899.967896,658.511841 897.042542,656.100159 895.490662,654.051880 
	C893.592407,651.546387 890.985901,653.056641 889.421448,655.416199 
	C886.243164,660.209717 885.346558,660.254089 881.276428,655.970947 
	C880.435425,655.085999 879.109802,654.198975 877.963806,654.138245 
	C866.930725,653.553406 864.002686,656.389709 864.015930,667.475525 
	C864.019592,670.514343 864.453735,674.157898 860.741699,674.927795 
	C857.191711,675.664124 852.514343,676.486694 849.812927,674.841064 
	C837.792969,667.518616 823.217712,672.397400 816.941650,682.763733 
	C813.472778,688.493408 806.914246,689.390320 800.754700,689.950500 
	C794.655884,690.505188 788.506409,690.507629 782.410156,691.081543 
	C780.612610,691.250793 778.936523,692.577698 777.175842,693.303955 
	C774.925720,694.231995 772.651672,695.824036 770.378540,695.840698 
	C763.183716,695.893250 755.986084,695.217041 748.785706,695.125244 
	C747.123230,695.104065 745.476746,696.687622 743.767029,696.822266 
	C741.330261,697.014099 737.524170,697.440063 736.666138,696.169861 
	C735.155945,693.934265 735.327026,690.501709 735.028870,687.546692 
	C734.941223,686.677429 735.644958,685.728210 736.318481,684.267761 
	C749.919800,678.429260 763.225525,673.228821 776.443909,667.815063 
	C784.721863,664.424866 792.868347,660.713745 801.447205,657.104187 
	C815.149536,650.299194 828.722473,643.967529 841.714722,636.610291 
	C849.352173,632.285522 856.066711,626.330933 863.541931,621.086670 
	C871.709106,615.983398 877.923950,609.447815 882.385620,600.958008 
	C884.486511,597.006470 886.584167,593.220215 887.881958,589.177246 
	C888.728394,586.540039 887.064697,584.797974 884.035034,584.997070 
	C886.207581,576.193054 883.359558,568.668640 878.220947,561.145447 
	C879.220398,559.352966 880.110352,558.170898 881.344055,557.039917 
	C888.751038,562.082458 895.814270,567.073975 903.046631,572.355103 
	C909.449646,579.442078 915.683655,586.239319 921.970703,593.404419 
	C928.153992,605.208862 927.326355,617.035156 923.726196,629.219116 
	C917.977112,642.641113 908.520935,652.735291 897.997559,661.995117 
M897.772644,648.963318 
	C898.807556,648.434998 899.962341,648.037903 900.789734,647.282288 
	C900.986023,647.103088 900.287109,645.260376 899.650146,644.981384 
	C897.814087,644.176941 895.818604,643.672913 893.837830,643.316956 
	C893.457397,643.248596 892.385254,644.859558 892.430786,644.905579 
	C893.741394,646.230042 895.151062,647.456848 896.555115,648.687683 
	C896.669922,648.788391 896.858398,648.805054 897.772644,648.963318 
z"/>
<path fill="#FD9606" opacity="1.000000" stroke="none" 
	d="
M518.549927,731.213013 
	C527.001587,721.394043 535.418274,711.544678 543.912781,701.762817 
	C558.747620,684.679810 573.661438,667.665222 588.451782,650.544006 
	C590.211853,648.506592 591.738220,647.551331 594.694275,647.815796 
	C612.416809,649.401550 630.148621,651.382202 647.915039,651.876160 
	C686.599487,652.951843 725.030701,649.692383 763.532593,643.337952 
	C762.478638,644.751221 761.188660,646.137085 759.597046,646.837524 
	C749.330750,651.355408 739.070984,655.906311 728.645569,660.033508 
	C725.363037,661.332947 721.497498,662.161804 718.040100,661.811584 
	C710.494019,661.047058 704.908997,663.698486 700.269348,669.388977 
	C698.853821,671.125061 696.908081,672.466675 695.079102,673.818420 
	C692.587097,675.659912 689.724854,677.067932 687.471008,679.148743 
	C684.001282,682.352112 680.256958,682.738770 675.678711,682.582153 
	C669.011047,682.354126 661.890991,682.206604 655.722046,684.280212 
	C649.681274,686.310852 644.133606,689.669434 637.496155,690.189331 
	C635.136414,690.374084 632.934326,692.077942 630.553284,692.565796 
	C617.951843,695.147949 608.878906,705.422546 596.226685,708.057190 
	C591.665588,709.007019 587.443787,711.613220 583.094299,713.525269 
	C582.364624,713.845886 581.407837,714.349182 581.174194,714.992493 
	C578.492249,722.378418 571.361755,721.222717 566.784058,720.389160 
	C555.236755,718.286438 546.101318,721.701965 538.268799,729.424927 
	C534.495667,733.145325 529.943237,733.905457 525.335754,734.939087 
	C522.195923,735.643494 519.832031,734.242371 518.549927,731.213013 
z"/>
<path fill="#102F94" opacity="1.000000" stroke="none" 
	d="
M844.479553,559.368713 
	C846.597351,561.223083 848.951538,562.870728 850.788025,564.971069 
	C856.057373,570.997314 855.379700,579.103516 848.933228,583.794556 
	C845.485779,586.303284 841.525330,588.296082 837.531067,589.831421 
	C820.608459,596.337036 802.847839,599.540100 784.916565,600.817078 
	C757.702576,602.755127 730.412903,604.590881 703.151794,604.644592 
	C674.649719,604.700745 646.332214,601.324219 619.062317,592.107849 
	C615.131409,590.779358 611.332520,589.060486 607.422546,587.026001 
	C609.164551,586.063721 610.984802,585.684509 612.742249,585.112366 
	C615.722900,584.142090 618.641724,582.229980 621.625488,582.149231 
	C635.713013,581.767639 649.329712,577.318604 663.871643,579.370850 
	C673.460083,580.724060 683.645569,577.470459 693.596924,576.721558 
	C707.122192,575.703735 720.674011,574.661255 734.224609,574.503784 
	C741.969360,574.413757 749.728149,576.123291 757.495728,576.864014 
	C758.898499,576.997864 760.380127,576.385681 761.816223,576.075684 
	C768.070496,574.725586 774.395325,571.951843 780.559204,572.275024 
	C796.430969,573.107178 810.989197,569.012817 825.474854,563.458496 
	C828.212891,562.408569 831.554871,562.724609 834.612671,562.770752 
	C838.375977,562.827332 842.357666,563.921082 844.479553,559.368713 
z"/>
<path fill="#11349D" opacity="1.000000" stroke="none" 
	d="
M844.466553,559.387024 
	C842.357666,563.921082 838.375977,562.827332 834.612671,562.770752 
	C831.554871,562.724609 828.212891,562.408569 825.474854,563.458496 
	C810.989197,569.012817 796.430969,573.107178 780.559204,572.275024 
	C774.395325,571.951843 768.070496,574.725586 761.816223,576.075684 
	C760.380127,576.385681 758.898499,576.997864 757.495728,576.864014 
	C749.728149,576.123291 741.969360,574.413757 734.224609,574.503784 
	C720.674011,574.661255 707.122192,575.703735 693.596924,576.721558 
	C683.645569,577.470459 673.460083,580.724060 663.871643,579.370850 
	C649.329712,577.318604 635.713013,581.767639 621.625488,582.149231 
	C618.641724,582.229980 615.722900,584.142090 612.742249,585.112366 
	C610.984802,585.684509 609.164551,586.063721 607.179443,586.779663 
	C596.151489,583.317566 587.256165,576.697998 579.597046,568.285889 
	C582.770874,566.318176 585.867737,562.997742 588.596497,563.276733 
	C603.959167,564.847595 618.147888,558.621765 633.046631,557.405640 
	C642.411865,556.641174 651.693176,554.805359 661.061096,554.133789 
	C666.625793,553.734863 672.593567,555.971375 677.841675,554.735718 
	C690.688232,551.710999 704.118591,554.424316 716.722595,550.089050 
	C717.466614,549.833130 718.376038,550.089783 719.204956,550.044189 
	C722.906006,549.840454 726.604248,549.584839 730.306335,549.405579 
	C732.611206,549.294006 734.927307,549.372803 737.226990,549.207886 
	C739.914001,549.015137 742.685364,549.002258 745.251465,548.297363 
	C755.179077,545.570251 764.714600,541.022705 775.520203,542.903137 
	C778.518799,543.424988 781.691895,542.927612 784.784912,542.928833 
	C787.683411,542.929932 790.621704,542.681580 793.470215,543.071045 
	C796.895752,543.539246 800.220154,544.947021 803.638977,545.169006 
	C805.077637,545.262512 806.645874,543.361572 808.155212,542.367249 
	C817.178284,546.147644 826.225159,549.873108 835.207825,553.747131 
	C837.457520,554.717346 839.501099,556.165405 841.885498,558.033081 
	C842.900208,558.905151 843.668823,559.138000 844.437500,559.370789 
	C844.437500,559.370789 844.453613,559.405334 844.466553,559.387024 
z"/>
<path fill="#FD8D04" opacity="1.000000" stroke="none" 
	d="
M518.255249,731.383179 
	C519.832031,734.242371 522.195923,735.643494 525.335754,734.939087 
	C529.943237,733.905457 534.495667,733.145325 538.268799,729.424927 
	C546.101318,721.701965 555.236755,718.286438 566.784058,720.389160 
	C571.361755,721.222717 578.492249,722.378418 581.174194,714.992493 
	C581.407837,714.349182 582.364624,713.845886 583.094299,713.525269 
	C587.443787,711.613220 591.665588,709.007019 596.226685,708.057190 
	C608.878906,705.422546 617.951843,695.147949 630.553284,692.565796 
	C632.934326,692.077942 635.136414,690.374084 637.496155,690.189331 
	C644.133606,689.669434 649.681274,686.310852 655.722046,684.280212 
	C661.890991,682.206604 669.011047,682.354126 675.678711,682.582153 
	C680.256958,682.738770 684.001282,682.352112 687.471008,679.148743 
	C689.724854,677.067932 692.587097,675.659912 695.079102,673.818420 
	C696.908081,672.466675 698.853821,671.125061 700.269348,669.388977 
	C704.908997,663.698486 710.494019,661.047058 718.040100,661.811584 
	C721.497498,662.161804 725.363037,661.332947 728.645569,660.033508 
	C739.070984,655.906311 749.330750,651.355408 759.597046,646.837524 
	C761.188660,646.137085 762.478638,644.751221 763.954895,643.375977 
	C778.093384,639.413513 792.185120,635.757446 806.833740,632.414490 
	C810.218811,634.510498 810.968384,637.195129 809.386658,639.874634 
	C808.122009,642.016846 806.209473,644.154541 804.056335,645.310730 
	C800.313965,647.320435 799.263062,649.925171 800.406067,653.792603 
	C800.727844,654.881287 800.856628,656.027039 801.073853,657.146606 
	C792.868347,660.713745 784.721863,664.424866 776.443909,667.815063 
	C763.225525,673.228821 749.919800,678.429260 736.324585,683.890259 
	C722.934204,688.358826 709.921631,692.822144 696.792053,696.909729 
	C683.053711,701.186951 669.238037,705.226990 655.392395,709.145325 
	C638.574219,713.904846 621.689392,718.428772 604.333557,722.655457 
	C602.358765,721.837524 600.891479,721.092468 599.407532,721.057556 
	C593.558350,720.919739 587.703674,720.974487 581.851501,721.017090 
	C577.176453,721.051147 574.640930,723.817200 574.109314,729.335938 
	C565.257935,731.178284 556.433838,733.166931 547.548157,734.825500 
	C536.859680,736.820679 526.124084,738.567749 515.392517,740.321716 
	C514.289612,740.501953 513.074768,739.997253 511.808228,739.452759 
	C513.789917,736.581177 515.875305,734.067200 518.255249,731.383179 
z"/>
<path fill="#133FA5" opacity="1.000000" stroke="none" 
	d="
M707.002441,441.016174 
	C716.731567,437.667908 726.265381,433.482697 736.233093,431.157135 
	C753.458984,427.138214 770.849609,423.493439 788.366028,421.146210 
	C805.572632,418.840515 823.004517,417.880157 840.371216,417.234863 
	C850.257202,416.867523 860.210632,418.312744 871.009033,418.958313 
	C887.250549,421.294800 902.616760,423.614746 917.982910,425.934631 
	C933.780029,430.536530 949.579041,435.131927 965.371521,439.749603 
	C967.098022,440.254456 968.786926,440.887817 970.724243,441.737183 
	C967.513977,442.111084 964.072998,442.220856 960.631409,442.305817 
	C934.733276,442.945312 908.834961,443.579926 882.187073,443.825073 
	C877.199402,443.309967 872.924805,442.792084 868.734375,443.181091 
	C865.108154,443.517761 861.577515,444.883759 858.004578,445.794769 
	C857.558594,445.879791 857.112549,445.964844 856.265320,445.639038 
	C852.378052,444.884674 849.558411,442.600006 846.635254,441.577545 
	C841.242798,439.691437 834.874512,439.915314 828.977783,440.288269 
	C815.405701,441.146667 801.871399,443.489014 788.324158,443.470398 
	C781.827271,443.461487 776.003052,444.642456 769.937256,446.073608 
	C767.267822,446.703430 763.815796,447.638733 761.731140,446.530884 
	C749.171692,439.856354 736.152405,443.651550 723.286194,444.147797 
	C720.082581,444.271393 716.492981,444.044617 713.794373,445.399780 
	C709.460999,447.575806 706.223755,446.751038 703.084839,443.641479 
	C704.503723,442.578339 705.753113,441.797272 707.002441,441.016174 
z"/>
<path fill="#1442B1" opacity="1.000000" stroke="none" 
	d="
M573.872070,561.287659 
	C566.606140,550.104614 563.633667,537.935120 566.006470,524.608582 
	C566.832397,528.893738 567.109375,533.234009 567.471741,538.911377 
	C575.231262,534.855408 581.987915,531.234009 588.835632,527.793884 
	C591.156616,526.627808 593.681213,525.209717 596.157654,525.117981 
	C611.412903,524.552734 626.679871,524.267761 641.945068,524.018738 
	C657.136292,523.770935 671.803284,520.770325 686.087524,515.789124 
	C687.935181,515.144836 689.469482,513.602173 690.800354,512.709412 
	C688.207153,509.014984 686.101135,506.014648 684.386475,503.053040 
	C689.961182,505.127899 695.181396,505.495636 700.455078,503.437531 
	C700.406677,503.601074 700.358337,503.764648 700.322754,504.014648 
	C701.206604,504.447815 702.077576,504.794525 702.948547,505.141266 
	C719.189331,511.281799 735.343018,517.667053 751.699524,523.482178 
	C763.866699,527.807922 776.296631,531.394897 788.559998,535.910034 
	C781.571838,537.924683 774.747986,537.359985 769.017944,533.161316 
	C765.821228,530.818909 763.731262,531.551270 761.141968,533.349548 
	C760.335876,533.909424 759.487061,534.814697 758.636658,534.839661 
	C751.731506,535.042358 744.818176,534.972046 737.913513,535.183411 
	C730.218689,535.419006 722.530151,535.859314 714.839844,536.230164 
	C714.525330,536.245300 714.228394,536.488342 713.909973,536.578125 
	C698.107422,541.031799 682.563416,546.167358 665.627197,545.226074 
	C655.458923,544.661011 645.167419,546.392151 634.926758,547.016968 
	C630.212158,547.304504 625.433167,547.032898 620.777832,547.687378 
	C612.448853,548.858215 604.229675,550.829224 595.893372,551.923584 
	C587.596130,553.012756 579.362549,553.794128 573.872070,561.287659 
z"/>
<path fill="#1962D6" opacity="1.000000" stroke="none" 
	d="
M917.995728,425.554382 
	C902.616760,423.614746 887.250549,421.294800 871.435547,418.937805 
	C871.179993,415.542114 871.580261,412.177399 871.481750,408.827301 
	C871.430115,407.070190 870.995728,404.744324 869.824280,403.776215 
	C868.813538,402.940857 866.150635,403.058960 864.866760,403.832306 
	C862.665771,405.157990 861.396118,405.203613 859.950867,403.002441 
	C859.059998,401.645508 857.963623,399.936676 856.588806,399.463745 
	C847.897644,396.474304 839.102234,393.787781 830.342468,390.997498 
	C828.488892,390.407074 826.602417,389.896484 824.797546,389.181519 
	C821.466492,387.862000 818.180115,386.428955 814.883667,385.023163 
	C811.758057,383.690247 808.269653,382.815643 805.663513,380.803467 
	C804.089111,379.587982 803.818359,376.612579 803.104553,374.382263 
	C802.709167,373.147217 802.607483,371.818207 802.181519,370.245972 
	C811.455444,368.042572 820.898071,365.998535 830.395874,364.255066 
	C835.937378,363.237762 841.580811,362.789154 847.153809,361.926178 
	C853.972107,360.870361 860.741516,359.478180 867.575439,358.550751 
	C873.401306,357.760101 879.288635,357.421448 885.576904,357.005127 
	C885.827087,357.918121 885.922485,359.052124 885.428223,359.445648 
	C881.120667,362.875366 883.302246,364.847900 886.575989,367.458008 
	C891.651184,371.504303 895.826782,376.798340 901.202148,380.311035 
	C905.519287,383.132172 908.282349,388.722626 914.889771,388.190857 
	C918.445129,387.904724 918.879333,390.777039 916.219666,396.424011 
	C921.529846,401.059357 920.778381,406.758514 918.702332,412.667114 
	C918.436096,413.424683 917.947205,414.637085 918.269104,414.985870 
	C921.535583,418.526245 918.688049,421.809784 917.995728,425.554382 
z"/>
<path fill="#7CCBF6" opacity="1.000000" stroke="none" 
	d="
M657.000000,331.001587 
	C671.436279,331.000671 685.372620,331.000671 699.960938,331.000671 
	C699.547241,339.137817 699.252075,346.707001 698.753296,354.262787 
	C698.250366,361.880066 697.672546,369.498169 696.828125,377.082550 
	C696.645203,378.725189 695.578979,381.010956 694.255249,381.674072 
	C673.468872,392.086426 652.574219,402.282623 631.696777,412.512665 
	C631.432434,412.642151 631.067322,412.565918 629.787415,412.645660 
	C631.134338,385.626221 632.475464,358.722198 633.857239,331.002472 
	C641.661560,331.002472 649.080811,331.002472 657.000000,331.001587 
z"/>
<path fill="#FD9606" opacity="1.000000" stroke="none" 
	d="
M836.027832,528.937378 
	C822.822998,523.185913 809.618164,517.434387 795.597717,511.327637 
	C797.120361,510.886841 797.800171,510.544891 798.495667,510.509430 
	C835.703369,508.610199 872.633301,510.610016 908.994202,519.176758 
	C929.798950,524.078308 949.698914,531.441956 967.733521,543.716125 
	C961.800476,545.793030 956.030518,545.532837 950.173523,543.975220 
	C947.746521,543.329834 945.000732,543.474854 942.455200,543.757874 
	C933.803894,544.719666 925.203308,546.342773 916.532532,546.858887 
	C909.966919,547.249634 903.326965,546.217102 896.714050,546.038269 
	C890.652100,545.874268 884.582031,545.992615 878.515686,546.019287 
	C877.552185,546.023499 876.589478,546.199951 875.806213,546.278748 
	C875.106323,548.060547 874.524109,549.542786 873.631348,550.891113 
	C869.885803,548.756104 866.450745,546.755005 862.972290,544.428955 
	C857.195862,540.810242 851.462769,537.516602 845.729675,534.222961 
	C845.729675,534.222961 845.873352,534.143005 845.751465,533.900940 
	C844.986328,533.465820 844.343140,533.272766 843.699890,533.079773 
	C843.699890,533.079773 843.258423,533.045776 842.965088,532.731934 
	C842.457092,532.232605 842.213135,532.101440 841.939941,532.024658 
	C841.939941,532.024658 841.990479,531.994324 841.847412,531.787476 
	C841.373230,531.447754 841.042114,531.314941 840.711060,531.182129 
	C840.711060,531.182129 840.893494,531.153137 840.762085,530.906982 
	C839.345642,530.170349 838.060486,529.679932 836.775391,529.189514 
	C836.775391,529.189514 836.889648,529.212769 836.850708,529.060608 
	C836.550476,528.918091 836.289124,528.927734 836.027832,528.937378 
z"/>
<path fill="#FA7503" opacity="1.000000" stroke="none" 
	d="
M923.996460,629.001526 
	C927.326355,617.035156 928.153992,605.208862 922.380249,593.384766 
	C932.227051,590.653809 941.786804,589.359192 951.556396,591.006653 
	C953.826965,591.389526 956.183289,592.186218 958.384155,591.900085 
	C967.783875,590.678040 977.129944,589.050232 986.516296,587.716003 
	C991.620361,586.990540 996.765991,586.556824 1001.892883,585.991516 
	C1004.533508,596.414490 1003.151733,606.281738 999.635803,616.486267 
	C996.542419,625.464355 991.861755,633.152588 985.646729,640.782959 
	C983.993286,640.952637 982.608154,641.303406 982.068848,640.781067 
	C976.371643,635.262085 968.856018,637.521484 962.244080,636.116394 
	C949.563599,633.421509 936.753052,631.338379 923.996460,629.001526 
z"/>
<path fill="#1A5BCD" opacity="1.000000" stroke="none" 
	d="
M706.835205,440.693604 
	C705.753113,441.797272 704.503723,442.578339 702.716431,443.666901 
	C697.310608,446.396881 692.163879,448.391571 687.639404,451.340881 
	C680.623108,455.914581 673.220764,460.238892 668.695374,468.199432 
	C667.226562,471.927002 666.031433,475.442871 664.424988,478.957031 
	C659.420837,478.776276 654.829102,478.552673 650.234558,478.446472 
	C648.936951,478.416443 647.629333,478.714417 646.329834,478.888519 
	C641.717285,479.506653 637.100891,480.099030 632.496033,480.770325 
	C625.511780,481.788513 618.547546,482.950745 611.552124,483.881592 
	C607.731262,484.389984 603.823914,484.308258 600.029907,484.939728 
	C596.949585,485.452423 593.987732,486.658447 590.959839,487.509125 
	C586.163086,488.856812 581.342529,490.031250 578.387329,494.739075 
	C577.872925,495.558563 576.073975,495.571747 574.868347,495.957336 
	C581.110046,483.908081 589.209229,473.190125 598.959473,463.833740 
	C605.768860,457.299500 613.176697,451.388916 620.636108,445.089783 
	C628.668213,450.018494 636.481506,447.201050 644.313843,445.338837 
	C649.412048,444.126678 654.554993,443.102478 659.679199,442.000122 
	C660.960754,441.724426 662.237183,441.394836 663.533630,441.224091 
	C667.010803,440.766205 670.496094,440.368317 673.980774,439.969421 
	C680.860107,439.182007 687.732300,437.941162 694.624878,437.811371 
	C698.621826,437.736176 702.652527,439.457886 706.835205,440.693604 
z"/>
<path fill="#62BBF3" opacity="1.000000" stroke="none" 
	d="
M794.470520,298.507294 
	C793.318176,315.382935 792.256714,332.266174 790.841003,349.119690 
	C790.727844,350.466583 788.353394,352.298706 786.718079,352.733704 
	C775.503601,355.716858 764.128662,358.111694 752.958191,361.241180 
	C743.115112,363.998749 733.470520,367.464600 723.022278,370.849701 
	C724.198364,353.194916 725.349487,335.914825 726.988525,318.517700 
	C728.944214,326.228455 731.053101,327.356567 738.575012,324.241577 
	C744.807251,321.660645 750.843018,318.433167 757.275696,316.551331 
	C765.628845,314.107727 774.353821,312.963562 782.792969,310.775055 
	C787.974731,309.431244 793.733215,308.024872 793.167358,300.497375 
	C793.120178,299.870209 794.013916,299.172333 794.470520,298.507294 
z"/>
<path fill="#EE4903" opacity="1.000000" stroke="none" 
	d="
M923.726196,629.219116 
	C936.753052,631.338379 949.563599,633.421509 962.244080,636.116394 
	C968.856018,637.521484 976.371643,635.262085 982.068848,640.781067 
	C982.608154,641.303406 983.993286,640.952637 985.374023,640.987061 
	C980.507935,646.616272 975.781555,652.902100 969.893127,657.787292 
	C956.180298,669.163879 942.086487,680.127136 925.242676,687.903137 
	C924.066101,687.120972 923.106812,686.398499 923.192993,685.836243 
	C923.975159,680.729675 920.265991,679.244812 916.719299,677.940979 
	C910.860901,675.787415 904.905090,673.886292 898.941223,672.037170 
	C895.793213,671.061035 892.885010,670.077881 892.985596,666.000732 
	C894.461304,664.762268 895.936951,663.523804 897.705078,662.140259 
	C908.520935,652.735291 917.977112,642.641113 923.726196,629.219116 
z"/>
<path fill="#11349D" opacity="1.000000" stroke="none" 
	d="
M668.969055,467.987701 
	C673.220764,460.238892 680.623108,455.914581 687.639404,451.340881 
	C692.163879,448.391571 697.310608,446.396881 702.546875,443.948975 
	C706.223755,446.751038 709.460999,447.575806 713.794373,445.399780 
	C716.492981,444.044617 720.082581,444.271393 723.286194,444.147797 
	C736.152405,443.651550 749.171692,439.856354 761.731140,446.530884 
	C763.815796,447.638733 767.267822,446.703430 769.937256,446.073608 
	C776.003052,444.642456 781.827271,443.461487 788.324158,443.470398 
	C801.871399,443.489014 815.405701,441.146667 828.977783,440.288269 
	C834.874512,439.915314 841.242798,439.691437 846.635254,441.577545 
	C849.558411,442.600006 852.378052,444.884674 855.930176,445.562744 
	C838.092285,447.954803 820.120300,449.550018 802.299683,452.174133 
	C772.745850,456.526062 743.481384,462.302917 715.173584,473.568665 
	C711.993164,468.030884 707.691040,466.429535 701.950195,466.908142 
	C696.780518,467.339142 691.546326,466.968811 686.341492,467.027344 
	C685.210999,467.040039 683.854187,467.034485 682.993835,467.616791 
	C678.346252,470.762390 673.707153,470.329895 668.969055,467.987701 
z"/>
<path fill="#39A0F0" opacity="1.000000" stroke="none" 
	d="
M820.930542,288.968048 
	C821.853943,275.232880 822.777344,261.497711 823.721436,247.455261 
	C846.864868,247.455261 869.529236,247.455261 892.856873,247.455261 
	C892.033875,258.596619 891.232056,269.452301 889.957275,280.417786 
	C888.786133,276.165314 885.893555,276.335297 882.879028,277.605988 
	C875.105469,280.882751 867.341919,283.553833 858.744019,284.471527 
	C846.831116,285.743011 835.082581,288.536682 823.240479,290.541656 
	C822.578308,290.653778 821.705322,289.521271 820.930542,288.968048 
z"/>
<path fill="#174FC1" opacity="1.000000" stroke="none" 
	d="
M574.606323,496.179016 
	C576.073975,495.571747 577.872925,495.558563 578.387329,494.739075 
	C581.342529,490.031250 586.163086,488.856812 590.959839,487.509125 
	C593.987732,486.658447 596.949585,485.452423 600.029907,484.939728 
	C603.823914,484.308258 607.731262,484.389984 611.552124,483.881592 
	C618.547546,482.950745 625.511780,481.788513 632.496033,480.770325 
	C637.100891,480.099030 641.717285,479.506653 646.329834,478.888519 
	C647.629333,478.714417 648.936951,478.416443 650.234558,478.446472 
	C654.829102,478.552673 659.420837,478.776276 664.474609,479.387512 
	C664.280029,486.661224 668.082458,491.149353 672.942627,495.407166 
	C667.944458,498.449524 663.244202,501.999390 657.953735,503.606934 
	C652.218140,505.349762 645.846619,504.871552 639.909546,506.113159 
	C633.019897,507.554016 626.241638,508.175385 619.162964,508.019623 
	C611.378601,507.848389 603.568176,509.698120 595.752197,509.862427 
	C589.710815,509.989410 584.991821,511.987274 580.484863,515.840515 
	C577.070679,518.759460 572.931519,520.830566 568.993225,523.357056 
	C568.075989,520.951782 567.510620,519.469360 566.945312,517.986877 
	C569.411621,510.791473 571.877991,503.596069 574.606323,496.179016 
z"/>
<path fill="#133FA5" opacity="1.000000" stroke="none" 
	d="
M574.040771,561.572510 
	C579.362549,553.794128 587.596130,553.012756 595.893372,551.923584 
	C604.229675,550.829224 612.448853,548.858215 620.777832,547.687378 
	C625.433167,547.032898 630.212158,547.304504 634.926758,547.016968 
	C645.167419,546.392151 655.458923,544.661011 665.627197,545.226074 
	C682.563416,546.167358 698.107422,541.031799 713.909973,536.578125 
	C714.228394,536.488342 714.525330,536.245300 714.839844,536.230164 
	C722.530151,535.859314 730.218689,535.419006 737.913513,535.183411 
	C744.818176,534.972046 751.731506,535.042358 758.636658,534.839661 
	C759.487061,534.814697 760.335876,533.909424 761.141968,533.349548 
	C763.731262,531.551270 765.821228,530.818909 769.017944,533.161316 
	C774.747986,537.359985 781.571838,537.924683 788.787292,536.188599 
	C795.249817,537.901550 801.435486,539.935120 807.888184,542.167969 
	C806.645874,543.361572 805.077637,545.262512 803.638977,545.169006 
	C800.220154,544.947021 796.895752,543.539246 793.470215,543.071045 
	C790.621704,542.681580 787.683411,542.929932 784.784912,542.928833 
	C781.691895,542.927612 778.518799,543.424988 775.520203,542.903137 
	C764.714600,541.022705 755.179077,545.570251 745.251465,548.297363 
	C742.685364,549.002258 739.914001,549.015137 737.226990,549.207886 
	C734.927307,549.372803 732.611206,549.294006 730.306335,549.405579 
	C726.604248,549.584839 722.906006,549.840454 719.204956,550.044189 
	C718.376038,550.089783 717.466614,549.833130 716.722595,550.089050 
	C704.118591,554.424316 690.688232,551.710999 677.841675,554.735718 
	C672.593567,555.971375 666.625793,553.734863 661.061096,554.133789 
	C651.693176,554.805359 642.411865,556.641174 633.046631,557.405640 
	C618.147888,558.621765 603.959167,564.847595 588.596497,563.276733 
	C585.867737,562.997742 582.770874,566.318176 579.475708,567.977661 
	C579.107422,567.978943 579.029663,567.972107 578.986572,567.657349 
	C578.427124,566.902283 577.910767,566.462097 577.394348,566.021851 
	C576.332703,564.633667 575.271118,563.245483 574.040771,561.572510 
z"/>
<path fill="#E53603" opacity="1.000000" stroke="none" 
	d="
M892.675598,666.137817 
	C892.885010,670.077881 895.793213,671.061035 898.941223,672.037170 
	C904.905090,673.886292 910.860901,675.787415 916.719299,677.940979 
	C920.265991,679.244812 923.975159,680.729675 923.192993,685.836243 
	C923.106812,686.398499 924.066101,687.120972 924.894775,687.941956 
	C908.336060,695.792175 891.457336,703.546570 874.488220,711.097656 
	C869.703064,713.227112 864.653015,714.760986 859.358215,716.594849 
	C860.163513,707.306824 856.437073,706.710205 848.173645,707.862122 
	C843.135315,708.564453 837.729004,706.795593 832.514465,705.969482 
	C830.782349,705.695068 829.132568,704.900330 826.792480,704.127930 
	C830.086792,699.302856 834.696533,696.327576 839.782715,695.197937 
	C847.726685,693.433533 853.999756,689.708374 859.784851,684.053162 
	C862.912537,680.995728 867.540283,678.753479 871.857727,677.796448 
	C878.842834,676.248047 884.187927,672.464966 889.428894,668.121887 
	C890.311707,667.390259 891.381958,666.884888 892.675598,666.137817 
z"/>
<path fill="#7CCBF6" opacity="1.000000" stroke="none" 
	d="
M794.574341,298.192261 
	C794.013916,299.172333 793.120178,299.870209 793.167358,300.497375 
	C793.733215,308.024872 787.974731,309.431244 782.792969,310.775055 
	C774.353821,312.963562 765.628845,314.107727 757.275696,316.551331 
	C750.843018,318.433167 744.807251,321.660645 738.575012,324.241577 
	C731.053101,327.356567 728.944214,326.228455 727.172668,318.148376 
	C727.545715,306.474609 728.222412,295.053131 728.923584,283.219971 
	C751.255554,283.219971 773.269592,283.219971 796.326721,283.219971 
	C795.767700,288.190338 795.222900,293.033783 794.574341,298.192261 
z"/>
<path fill="#FC8303" opacity="1.000000" stroke="none" 
	d="
M1001.917969,585.609375 
	C996.765991,586.556824 991.620361,586.990540 986.516296,587.716003 
	C977.129944,589.050232 967.783875,590.678040 958.384155,591.900085 
	C956.183289,592.186218 953.826965,591.389526 951.556396,591.006653 
	C941.786804,589.359192 932.227051,590.653809 922.327209,593.016968 
	C915.683655,586.239319 909.449646,579.442078 903.432190,572.294189 
	C907.758362,570.962891 911.820068,569.531982 915.986877,569.088013 
	C927.294556,567.883057 938.817932,567.978760 949.919434,565.825012 
	C956.984924,564.454407 963.695984,561.878357 971.174194,561.729980 
	C975.631287,561.641479 981.533020,562.227356 983.933411,556.216125 
	C992.707397,564.166443 998.932678,573.698975 1001.917969,585.609375 
z"/>
<path fill="#2A7AE5" opacity="1.000000" stroke="none" 
	d="
M888.692627,300.032074 
	C887.745300,312.609497 886.797913,325.186890 885.877197,337.410919 
	C862.344055,340.624603 839.334229,343.766815 815.630798,347.003784 
	C816.651672,335.827728 817.661011,324.777893 819.098633,313.579865 
	C821.760620,318.228638 826.523804,317.912842 829.780334,316.643921 
	C838.950867,313.070587 848.537476,312.585815 857.826660,313.290802 
	C870.901672,314.283081 878.713135,305.075012 888.692627,300.032074 
z"/>
<path fill="#1547B8" opacity="1.000000" stroke="none" 
	d="
M566.764771,518.323303 
	C567.510620,519.469360 568.075989,520.951782 568.993225,523.357056 
	C572.931519,520.830566 577.070679,518.759460 580.484863,515.840515 
	C584.991821,511.987274 589.710815,509.989410 595.752197,509.862427 
	C603.568176,509.698120 611.378601,507.848389 619.162964,508.019623 
	C626.241638,508.175385 633.019897,507.554016 639.909546,506.113159 
	C645.846619,504.871552 652.218140,505.349762 657.953735,503.606934 
	C663.244202,501.999390 667.944458,498.449524 673.248779,495.540588 
	C677.060242,497.888733 680.527649,500.451508 683.995117,503.014282 
	C686.101135,506.014648 688.207153,509.014984 690.800354,512.709412 
	C689.469482,513.602173 687.935181,515.144836 686.087524,515.789124 
	C671.803284,520.770325 657.136292,523.770935 641.945068,524.018738 
	C626.679871,524.267761 611.412903,524.552734 596.157654,525.117981 
	C593.681213,525.209717 591.156616,526.627808 588.835632,527.793884 
	C581.987915,531.234009 575.231262,534.855408 567.471741,538.911377 
	C567.109375,533.234009 566.832397,528.893738 566.251709,524.265686 
	C566.160095,522.205139 566.372192,520.432434 566.764771,518.323303 
z"/>
<path fill="#FD8D04" opacity="1.000000" stroke="none" 
	d="
M983.778992,555.913208 
	C981.533020,562.227356 975.631287,561.641479 971.174194,561.729980 
	C963.695984,561.878357 956.984924,564.454407 949.919434,565.825012 
	C938.817932,567.978760 927.294556,567.883057 915.986877,569.088013 
	C911.820068,569.531982 907.758362,570.962891 903.263184,572.004517 
	C895.814270,567.073975 888.751038,562.082458 881.188660,556.746521 
	C878.440308,554.609741 876.191101,552.817383 873.941895,551.025024 
	C874.524109,549.542786 875.106323,548.060547 875.806213,546.278748 
	C876.589478,546.199951 877.552185,546.023499 878.515686,546.019287 
	C884.582031,545.992615 890.652100,545.874268 896.714050,546.038269 
	C903.326965,546.217102 909.966919,547.249634 916.532532,546.858887 
	C925.203308,546.342773 933.803894,544.719666 942.455200,543.757874 
	C945.000732,543.474854 947.746521,543.329834 950.173523,543.975220 
	C956.030518,545.532837 961.800476,545.793030 967.918213,543.989380 
	C973.323120,547.633789 978.473816,551.622070 983.778992,555.913208 
z"/>
<path fill="#308DEC" opacity="1.000000" stroke="none" 
	d="
M888.811279,299.600830 
	C878.713135,305.075012 870.901672,314.283081 857.826660,313.290802 
	C848.537476,312.585815 838.950867,313.070587 829.780334,316.643921 
	C826.523804,317.912842 821.760620,318.228638 819.243774,313.205200 
	C819.513977,305.223969 820.067322,297.469177 820.775635,289.341217 
	C821.705322,289.521271 822.578308,290.653778 823.240479,290.541656 
	C835.082581,288.536682 846.831116,285.743011 858.744019,284.471527 
	C867.341919,283.553833 875.105469,280.882751 882.879028,277.605988 
	C885.893555,276.335297 888.786133,276.165314 889.767944,280.778503 
	C889.677551,287.076141 889.303711,293.122864 888.811279,299.600830 
z"/>
<path fill="#113398" opacity="1.000000" stroke="none" 
	d="
M984.690552,294.028259 
	C983.622803,306.259735 982.555054,318.491180 981.460999,331.023895 
	C958.338440,332.192688 935.341248,333.355164 911.541199,334.558228 
	C912.563293,325.350677 913.598206,316.027191 915.073975,306.583313 
	C915.873779,307.868073 916.232849,309.273193 916.586121,310.655579 
	C925.278137,309.460297 933.743530,308.258484 942.220398,307.143372 
	C948.118286,306.367523 954.021301,305.239746 959.940857,305.106476 
	C969.876282,304.882782 978.845215,303.111877 984.690552,294.028259 
z"/>
<path fill="#1547B8" opacity="1.000000" stroke="none" 
	d="
M988.734741,248.021545 
	C987.899292,258.096069 987.063904,268.170593 985.726807,278.582153 
	C982.957397,278.552368 980.192444,277.163208 978.502930,277.985046 
	C967.676453,283.251465 956.010376,283.073395 944.663513,282.639984 
	C935.229736,282.279663 927.259644,285.547729 918.571167,288.280121 
	C918.219177,287.783417 917.582336,286.884735 916.945435,285.986053 
	C917.879395,275.914429 918.813293,265.842804 920.166504,255.669678 
	C920.872131,258.276184 921.158569,260.984222 921.575806,264.928955 
	C926.346863,262.776672 931.449219,261.966095 934.067932,258.978516 
	C939.279907,253.032410 944.716309,252.977081 951.447388,254.837631 
	C954.246155,255.611237 957.793152,255.633026 960.438843,254.583023 
	C965.378540,252.622589 969.998962,251.230194 975.369873,252.791672 
	C978.902771,253.818771 982.698975,253.940308 986.000183,254.413315 
	C986.945007,252.204895 987.839844,250.113220 988.734741,248.021545 
z"/>
<path fill="#133FA5" opacity="1.000000" stroke="none" 
	d="
M916.788757,286.357117 
	C917.582336,286.884735 918.219177,287.783417 918.571167,288.280121 
	C927.259644,285.547729 935.229736,282.279663 944.663513,282.639984 
	C956.010376,283.073395 967.676453,283.251465 978.502930,277.985046 
	C980.192444,277.163208 982.957397,278.552368 985.587585,278.969177 
	C985.609131,283.736206 985.268188,288.453186 984.808838,293.599213 
	C978.845215,303.111877 969.876282,304.882782 959.940857,305.106476 
	C954.021301,305.239746 948.118286,306.367523 942.220398,307.143372 
	C933.743530,308.258484 925.278137,309.460297 916.586121,310.655579 
	C916.232849,309.273193 915.873779,307.868073 915.228149,306.219543 
	C915.505005,299.560120 916.068542,293.144165 916.788757,286.357117 
z"/>
<path fill="#174FC1" opacity="1.000000" stroke="none" 
	d="
M988.852661,247.607239 
	C987.839844,250.113220 986.945007,252.204895 986.000183,254.413315 
	C982.698975,253.940308 978.902771,253.818771 975.369873,252.791672 
	C969.998962,251.230194 965.378540,252.622589 960.438843,254.583023 
	C957.793152,255.633026 954.246155,255.611237 951.447388,254.837631 
	C944.716309,252.977081 939.279907,253.032410 934.067932,258.978516 
	C931.449219,261.966095 926.346863,262.776672 921.575806,264.928955 
	C921.158569,260.984222 920.872131,258.276184 920.298706,255.285553 
	C920.428345,249.202286 920.845093,243.401581 921.830627,237.262177 
	C924.135376,236.498947 926.178101,236.522247 927.557617,235.577393 
	C936.619507,229.370453 947.230164,229.499664 957.233704,229.579758 
	C967.805054,229.664398 978.354980,232.418732 988.914307,234.006882 
	C988.933044,238.402237 988.951843,242.797577 988.852661,247.607239 
z"/>
<path fill="#1A5BCD" opacity="1.000000" stroke="none" 
	d="
M989.006104,233.724304 
	C978.354980,232.418732 967.805054,229.664398 957.233704,229.579758 
	C947.230164,229.499664 936.619507,229.370453 927.557617,235.577393 
	C926.178101,236.522247 924.135376,236.498947 921.977417,236.882370 
	C922.330750,227.564270 923.106140,218.287262 923.901062,208.775787 
	C946.587219,208.775787 968.975281,208.775787 992.223450,208.775787 
	C991.456726,213.914764 990.762329,218.569489 989.710754,223.921173 
	C989.266235,227.164154 989.178894,229.710205 989.091553,232.256241 
	C989.093628,232.651398 989.095764,233.046570 989.006104,233.724304 
z"/>
<path fill="#102F94" opacity="1.000000" stroke="none" 
	d="
M684.386475,503.053040 
	C680.527649,500.451508 677.060242,497.888733 673.286621,495.192566 
	C668.082458,491.149353 664.280029,486.661224 664.885925,479.389221 
	C666.031433,475.442871 667.226562,471.927002 668.695374,468.199432 
	C673.707153,470.329895 678.346252,470.762390 682.993835,467.616791 
	C683.854187,467.034485 685.210999,467.040039 686.341492,467.027344 
	C691.546326,466.968811 696.780518,467.339142 701.950195,466.908142 
	C707.691040,466.429535 711.993164,468.030884 714.807190,473.593597 
	C710.176270,476.656738 705.072754,478.997437 700.673340,482.281433 
	C691.590027,489.061890 691.587952,495.282684 700.261230,503.181274 
	C695.181396,505.495636 689.961182,505.127899 684.386475,503.053040 
z"/>
<path fill="#FC8303" opacity="1.000000" stroke="none" 
	d="
M801.447205,657.104187 
	C800.856628,656.027039 800.727844,654.881287 800.406067,653.792603 
	C799.263062,649.925171 800.313965,647.320435 804.056335,645.310730 
	C806.209473,644.154541 808.122009,642.016846 809.386658,639.874634 
	C810.968384,637.195129 810.218811,634.510498 807.216064,632.418640 
	C822.779541,625.764832 838.517578,619.419922 854.915771,613.174683 
	C858.115967,615.886047 860.656128,618.497681 863.196350,621.109314 
	C856.066711,626.330933 849.352173,632.285522 841.714722,636.610291 
	C828.722473,643.967529 815.149536,650.299194 801.447205,657.104187 
z"/>
<path fill="#FA7503" opacity="1.000000" stroke="none" 
	d="
M863.541931,621.086670 
	C860.656128,618.497681 858.115967,615.886047 855.272827,613.131226 
	C862.435120,607.411804 869.900452,601.835449 878.005249,596.164795 
	C879.777466,597.718384 880.910156,599.366333 882.042847,601.014282 
	C877.923950,609.447815 871.709106,615.983398 863.541931,621.086670 
z"/>
<path fill="#EE4903" opacity="1.000000" stroke="none" 
	d="
M882.385620,600.958008 
	C880.910156,599.366333 879.777466,597.718384 878.308289,596.024902 
	C879.861023,592.507507 881.750305,589.035645 883.837280,585.280396 
	C887.064697,584.797974 888.728394,586.540039 887.881958,589.177246 
	C886.584167,593.220215 884.486511,597.006470 882.385620,600.958008 
z"/>
<path fill="#EE4903" opacity="1.000000" stroke="none" 
	d="
M873.631348,550.891113 
	C876.191101,552.817383 878.440308,554.609741 880.844910,556.695435 
	C880.110352,558.170898 879.220398,559.352966 878.141357,560.810181 
	C873.054626,556.270203 868.156799,551.454956 863.117432,546.023987 
	C862.989136,545.190125 863.002441,544.971985 863.015686,544.753906 
	C866.450745,546.755005 869.885803,548.756104 873.631348,550.891113 
z"/>
<path fill="#11349D" opacity="1.000000" stroke="none" 
	d="
M858.441650,445.860352 
	C861.577515,444.883759 865.108154,443.517761 868.734375,443.181091 
	C872.924805,442.792084 877.199402,443.309967 881.726318,443.737305 
	C874.303040,444.669037 866.590881,445.297485 858.441650,445.860352 
z"/>
<path fill="#FA7503" opacity="1.000000" stroke="none" 
	d="
M862.972290,544.428955 
	C863.002441,544.971985 862.989136,545.190125 862.950684,545.734680 
	C857.304016,542.306946 851.682556,538.552734 845.895386,534.510742 
	C851.462769,537.516602 857.195862,540.810242 862.972290,544.428955 
z"/>
<path fill="#174FC1" opacity="1.000000" stroke="none" 
	d="
M989.416992,232.089966 
	C989.178894,229.710205 989.266235,227.164154 989.627441,224.321854 
	C989.848389,226.658295 989.795410,229.291000 989.416992,232.089966 
z"/>
<path fill="#E53603" opacity="1.000000" stroke="none" 
	d="
M848.298096,720.072998 
	C848.291870,719.198914 848.569763,718.360046 848.847717,717.521118 
	C849.238037,717.933289 849.628418,718.345520 850.071777,719.103516 
	C849.610657,719.668884 849.096497,719.888489 848.298096,720.072998 
z"/>
<path fill="#FA7503" opacity="1.000000" stroke="none" 
	d="
M836.965698,529.468384 
	C838.060486,529.679932 839.345642,530.170349 840.748657,530.998352 
	C839.629761,530.806396 838.392944,530.276794 836.965698,529.468384 
z"/>
<path fill="#102F94" opacity="1.000000" stroke="none" 
	d="
M702.747986,504.911499 
	C702.077576,504.794525 701.206604,504.447815 700.413940,503.775574 
	C701.177246,503.860626 701.862366,504.271210 702.747986,504.911499 
z"/>
<path fill="#102F94" opacity="1.000000" stroke="none" 
	d="
M844.244263,559.158691 
	C843.668823,559.138000 842.900208,558.905151 842.074097,558.314575 
	C842.694763,558.286804 843.372925,558.616760 844.244263,559.158691 
z"/>
<path fill="#EE4903" opacity="1.000000" stroke="none" 
	d="
M603.241577,750.976196 
	C603.601685,750.745911 604.130554,750.617310 604.793640,750.692261 
	C604.421997,750.956543 603.916199,751.017212 603.241577,750.976196 
z"/>
<path fill="#11349D" opacity="1.000000" stroke="none" 
	d="
M577.488525,566.260498 
	C577.910767,566.462097 578.427124,566.902283 578.991150,567.618530 
	C578.553406,567.429443 578.068054,566.964294 577.488525,566.260498 
z"/>
<path fill="#FA7503" opacity="1.000000" stroke="none" 
	d="
M843.894165,533.345276 
	C844.343140,533.272766 844.986328,533.465820 845.765015,533.982056 
	C845.296509,534.073669 844.692505,533.842224 843.894165,533.345276 
z"/>
<path fill="#FA7503" opacity="1.000000" stroke="none" 
	d="
M842.046082,532.219238 
	C842.213135,532.101440 842.457092,532.232605 842.805786,532.578186 
	C842.615173,532.780640 842.352722,532.672424 842.046082,532.219238 
z"/>
<path fill="#FA7503" opacity="1.000000" stroke="none" 
	d="
M840.821533,531.441162 
	C841.042114,531.314941 841.373230,531.447754 841.842285,531.816528 
	C841.630798,531.934937 841.281372,531.817566 840.821533,531.441162 
z"/>
<path fill="#FA7503" opacity="1.000000" stroke="none" 
	d="
M836.196655,529.090698 
	C836.289124,528.927734 836.550476,528.918091 836.814636,529.106445 
	C836.817505,529.304443 836.365479,529.244019 836.196655,529.090698 
z"/>
<path fill="#FD9606" opacity="1.000000" stroke="none" 
	d="
M574.534546,729.270264 
	C574.640930,723.817200 577.176453,721.051147 581.851501,721.017090 
	C587.703674,720.974487 593.558350,720.919739 599.407532,721.057556 
	C600.891479,721.092468 602.358765,721.837524 603.923706,722.656128 
	C594.329102,725.105469 584.644409,727.154968 574.534546,729.270264 
z"/>
<path fill="#E53603" opacity="1.000000" stroke="none" 
	d="
M855.045532,714.397095 
	C855.286072,714.791504 855.284363,715.183899 855.254272,715.574036 
	C855.253418,715.584961 854.949280,715.572510 854.786621,715.570923 
	C854.790833,715.178894 854.795044,714.786865 855.045532,714.397095 
z"/>
<path fill="#E43203" opacity="1.000000" stroke="none" 
	d="
M897.392639,648.912048 
	C896.858398,648.805054 896.669922,648.788391 896.555115,648.687683 
	C895.151062,647.456848 893.741394,646.230042 892.430786,644.905579 
	C892.385254,644.859558 893.457397,643.248596 893.837830,643.316956 
	C895.818604,643.672913 897.814087,644.176941 899.650146,644.981384 
	C900.287109,645.260376 900.986023,647.103088 900.789734,647.282288 
	C899.962341,648.037903 898.807556,648.434998 897.392639,648.912048 
z"/>
</svg>